<svg width="35" height="12" viewBox="0 0 35 12" fill="none" xmlns="http://www.w3.org/2000/svg">
<path d="M7.77332 9.92004C6.96844 10.7134 6.03099 11.11 4.96098 11.11C4.29814 11.11 3.67317 10.9794 3.08608 10.718C2.50846 10.4567 2.00187 10.0974 1.56628 9.64004C1.14017 9.18271 0.799282 8.64604 0.543614 8.03004C0.297416 7.40471 0.174316 6.73271 0.174316 6.01404C0.174316 5.33271 0.297416 4.69337 0.543614 4.09604C0.799282 3.48937 1.14491 2.96204 1.58049 2.51404C2.02554 2.0567 2.54634 1.69737 3.1429 1.43604C3.73946 1.16537 4.38809 1.03004 5.08881 1.03004C6.03573 1.03004 6.84534 1.22604 7.51765 1.61804C8.19943 2.01004 8.71077 2.53737 9.05166 3.20004L7.58867 4.26404C7.333 3.76937 6.97318 3.39137 6.50919 3.13004C6.05467 2.86871 5.55754 2.73804 5.0178 2.73804C4.59168 2.73804 4.19871 2.8267 3.83888 3.00404C3.48852 3.18137 3.18551 3.42404 2.92984 3.73204C2.68365 4.04004 2.48953 4.39471 2.34749 4.79604C2.21492 5.19737 2.14864 5.62204 2.14864 6.07004C2.14864 6.53671 2.22439 6.97537 2.3759 7.38604C2.5274 7.78737 2.73572 8.13737 3.00086 8.43604C3.266 8.73471 3.57848 8.97271 3.93831 9.15004C4.30761 9.31804 4.70531 9.40204 5.13142 9.40204C6.10675 9.40204 6.98738 8.94937 7.77332 8.04404V7.34404H5.74219V5.93004H9.39255V11.04H7.77332V9.92004Z" fill="#464646"/>
<path d="M14.3299 11.18C13.7333 11.18 13.1936 11.082 12.7107 10.886C12.2277 10.6807 11.8158 10.4054 11.4749 10.06C11.1341 9.71471 10.8689 9.31337 10.6795 8.85604C10.4996 8.39871 10.4097 7.91804 10.4097 7.41404C10.4097 6.89137 10.4996 6.40137 10.6795 5.94404C10.8595 5.47737 11.1199 5.07137 11.4607 4.72604C11.8016 4.37137 12.2135 4.09137 12.6965 3.88604C13.1889 3.68071 13.7381 3.57804 14.3441 3.57804C14.9501 3.57804 15.4899 3.68071 15.9633 3.88604C16.4463 4.09137 16.8534 4.36671 17.1849 4.71204C17.5257 5.05737 17.7814 5.45871 17.9519 5.91604C18.1318 6.37337 18.2217 6.84937 18.2217 7.34404C18.2217 7.46537 18.217 7.58204 18.2075 7.69404C18.2075 7.80604 18.1981 7.89937 18.1791 7.97404H12.4266C12.455 8.26337 12.526 8.52004 12.6397 8.74404C12.7533 8.96804 12.9001 9.15937 13.08 9.31804C13.2599 9.47671 13.4635 9.59804 13.6907 9.68204C13.918 9.76604 14.1547 9.80804 14.4009 9.80804C14.7797 9.80804 15.1348 9.71937 15.4662 9.54204C15.8071 9.35537 16.0391 9.11271 16.1622 8.81404L17.7956 9.26204C17.521 9.82204 17.0807 10.284 16.4747 10.648C15.8781 11.0027 15.1632 11.18 14.3299 11.18ZM16.2616 6.75604C16.2143 6.20537 16.0059 5.76671 15.6366 5.44004C15.2768 5.10404 14.8365 4.93604 14.3157 4.93604C14.06 4.93604 13.8186 4.98271 13.5913 5.07604C13.3735 5.16004 13.1794 5.28137 13.009 5.44004C12.8385 5.59871 12.6965 5.79004 12.5828 6.01404C12.4787 6.23804 12.4171 6.48537 12.3982 6.75604H16.2616Z" fill="#464646"/>
<path d="M22.8327 11.18C22.2362 11.18 21.6964 11.082 21.2135 10.886C20.7306 10.6807 20.3187 10.4054 19.9778 10.06C19.6369 9.71471 19.3718 9.31337 19.1824 8.85604C19.0025 8.39871 18.9125 7.91804 18.9125 7.41404C18.9125 6.89137 19.0025 6.40137 19.1824 5.94404C19.3623 5.47737 19.6227 5.07137 19.9636 4.72604C20.3045 4.37137 20.7164 4.09137 21.1993 3.88604C21.6917 3.68071 22.2409 3.57804 22.8469 3.57804C23.453 3.57804 23.9927 3.68071 24.4662 3.88604C24.9491 4.09137 25.3563 4.36671 25.6877 4.71204C26.0286 5.05737 26.2842 5.45871 26.4547 5.91604C26.6346 6.37337 26.7246 6.84937 26.7246 7.34404C26.7246 7.46537 26.7198 7.58204 26.7104 7.69404C26.7104 7.80604 26.7009 7.89937 26.6819 7.97404H20.9294C20.9578 8.26337 21.0289 8.52004 21.1425 8.74404C21.2561 8.96804 21.4029 9.15937 21.5828 9.31804C21.7627 9.47671 21.9663 9.59804 22.1936 9.68204C22.4208 9.76604 22.6576 9.80804 22.9038 9.80804C23.2825 9.80804 23.6376 9.71937 23.969 9.54204C24.3099 9.35537 24.5419 9.11271 24.665 8.81404L26.2984 9.26204C26.0238 9.82204 25.5835 10.284 24.9775 10.648C24.3809 11.0027 23.666 11.18 22.8327 11.18ZM24.7644 6.75604C24.7171 6.20537 24.5088 5.76671 24.1395 5.44004C23.7796 5.10404 23.3393 4.93604 22.8185 4.93604C22.5629 4.93604 22.3214 4.98271 22.0941 5.07604C21.8763 5.16004 21.6822 5.28137 21.5118 5.44004C21.3413 5.59871 21.1993 5.79004 21.0857 6.01404C20.9815 6.23804 20.92 6.48537 20.901 6.75604H24.7644Z" fill="#464646"/>
<path d="M32.969 11.04L30.81 7.86204L29.7874 8.85604V11.04H27.8841V0.820038H29.7874V7.02204L32.7701 3.71804H34.8013L32.0315 6.82604L35.0001 11.04H32.969Z" fill="#464646"/>
</svg>
