<svg width="37" height="12" viewBox="0 0 37 12" fill="none" xmlns="http://www.w3.org/2000/svg">
<path d="M4.25693 1.10004H5.98979L9.8248 11.04H7.80787L6.87042 8.56204H3.34789L2.42465 11.04H0.407715L4.25693 1.10004ZM6.51533 7.20404L5.12336 3.29804L3.67458 7.20404H6.51533Z" fill="#2A7AE4"/>
<path d="M10.7321 0.820038H12.6354V8.68804C12.6354 8.95871 12.7016 9.16871 12.8342 9.31804C12.9668 9.46737 13.1562 9.54204 13.4024 9.54204C13.516 9.54204 13.6391 9.52337 13.7717 9.48604C13.9137 9.44871 14.0463 9.40204 14.1694 9.34604L14.425 10.774C14.1694 10.8954 13.8711 10.9887 13.5302 11.054C13.1893 11.1194 12.8816 11.152 12.607 11.152C12.0104 11.152 11.5464 10.998 11.215 10.69C10.893 10.3727 10.7321 9.92471 10.7321 9.34604V0.820038Z" fill="#2A7AE4"/>
<path d="M17.5269 11.18C16.7599 11.18 16.1775 10.9374 15.7798 10.452C15.3821 9.96671 15.1833 9.24804 15.1833 8.29604V3.70404H17.0866V7.89004C17.0866 9.01937 17.4985 9.58404 18.3223 9.58404C18.6916 9.58404 19.0467 9.47671 19.3876 9.26204C19.7379 9.03804 20.022 8.70204 20.2398 8.25404V3.70404H22.1431V8.88404C22.1431 9.08004 22.1762 9.22004 22.2425 9.30404C22.3183 9.38804 22.4367 9.43471 22.5976 9.44404V11.04C22.4082 11.0774 22.2473 11.1007 22.1147 11.11C21.9916 11.1194 21.878 11.124 21.7738 11.124C21.4329 11.124 21.1536 11.0494 20.9358 10.9C20.7275 10.7414 20.6044 10.5267 20.5665 10.256L20.5239 9.66804C20.1925 10.172 19.7663 10.55 19.2455 10.802C18.7247 11.054 18.1519 11.18 17.5269 11.18Z" fill="#2A7AE4"/>
<path d="M28.4661 5.32804C27.8885 5.33737 27.3724 5.44937 26.9179 5.66404C26.4634 5.86937 26.1367 6.18204 25.9378 6.60204V11.04H24.0345V3.70404H25.7816V5.27204C25.9142 5.02004 26.0704 4.79604 26.2503 4.60004C26.4302 4.39471 26.6244 4.21737 26.8327 4.06804C27.041 3.91871 27.2493 3.80671 27.4576 3.73204C27.6754 3.64804 27.8837 3.60604 28.0826 3.60604C28.1868 3.60604 28.2625 3.60604 28.3099 3.60604C28.3667 3.60604 28.4188 3.61071 28.4661 3.62004V5.32804Z" fill="#2A7AE4"/>
<path d="M31.4614 11.18C31.1016 11.18 30.7654 11.124 30.453 11.012C30.1405 10.8907 29.8706 10.7274 29.6433 10.522C29.4161 10.3074 29.2362 10.06 29.1036 9.78004C28.9805 9.50004 28.919 9.19204 28.919 8.85604C28.919 8.51071 28.9947 8.19337 29.1462 7.90404C29.3072 7.60537 29.525 7.35337 29.7996 7.14804C30.0837 6.94271 30.4198 6.78404 30.8081 6.67204C31.1963 6.55071 31.6224 6.49004 32.0864 6.49004C32.4178 6.49004 32.7398 6.51804 33.0522 6.57404C33.3742 6.63004 33.6583 6.70937 33.9045 6.81204V6.39204C33.9045 5.90671 33.7624 5.53337 33.4784 5.27204C33.2038 5.01071 32.7918 4.88004 32.2426 4.88004C31.8449 4.88004 31.4567 4.95004 31.0779 5.09004C30.6992 5.23004 30.3109 5.43537 29.9132 5.70604L29.3309 4.51604C30.2873 3.89071 31.3194 3.57804 32.4273 3.57804C33.4973 3.57804 34.3258 3.83937 34.9129 4.36204C35.5095 4.87537 35.8078 5.62204 35.8078 6.60204V8.88404C35.8078 9.08004 35.8409 9.22004 35.9072 9.30404C35.983 9.38804 36.1013 9.43471 36.2623 9.44404V11.04C35.9403 11.1054 35.661 11.138 35.4243 11.138C35.0644 11.138 34.7851 11.0587 34.5863 10.9C34.3969 10.7414 34.2785 10.5314 34.2312 10.27L34.1885 9.86404C33.8571 10.2934 33.4547 10.62 32.9812 10.844C32.5078 11.068 32.0012 11.18 31.4614 11.18ZM32.0012 9.80804C32.3231 9.80804 32.6261 9.75204 32.9102 9.64004C33.2038 9.52804 33.431 9.37871 33.592 9.19204C33.8003 9.03337 33.9045 8.85604 33.9045 8.66004V7.82004C33.6772 7.73604 33.431 7.67071 33.1659 7.62404C32.9007 7.56804 32.6451 7.54004 32.3989 7.54004C31.9065 7.54004 31.504 7.65204 31.1916 7.87604C30.8791 8.09071 30.7228 8.36604 30.7228 8.70204C30.7228 9.01937 30.8459 9.28537 31.0921 9.50004C31.3383 9.70537 31.6413 9.80804 32.0012 9.80804Z" fill="#2A7AE4"/>
</svg>
